<svg width="24" height="23" viewBox="0 0 24 23" fill="none" xmlns="http://www.w3.org/2000/svg">
<g filter="url(#filter0_d_1287_2006)">
<path d="M12 4C12.2761 4 12.5 4.22386 12.5 4.5V6C12.5 6.27614 12.2761 6.5 12 6.5C11.7239 6.5 11.5 6.27614 11.5 6V4.5C11.5 4.22386 11.7239 4 12 4Z" fill="#B40000"/>
<path d="M7.73223 5.73223C7.9275 5.53697 8.24408 5.53697 8.43934 5.73223L9.35355 6.64645C9.54882 6.84171 9.54882 7.15829 9.35355 7.35355C9.15829 7.54882 8.84171 7.54882 8.64645 7.35355L7.73223 6.43934C7.53697 6.24408 7.53697 5.92749 7.73223 5.73223Z" fill="#B40000"/>
<path d="M6 10C6 9.72386 6.22386 9.5 6.5 9.5H8.08579C8.36193 9.5 8.58579 9.72386 8.58579 10C8.58579 10.2761 8.36193 10.5 8.08579 10.5H6.5C6.22386 10.5 6 10.2761 6 10Z" fill="#B40000"/>
<path d="M15.5 10C15.5 9.72386 15.7239 9.5 16 9.5H17.5C17.7761 9.5 18 9.72386 18 10C18 10.2761 17.7761 10.5 17.5 10.5H16C15.7239 10.5 15.5 10.2761 15.5 10Z" fill="#B40000"/>
<path d="M16.2543 5.75422C16.1109 5.61073 15.8811 5.60182 15.7269 5.73376L11.5473 9.31056C11.1445 9.65526 11.1206 10.27 11.4955 10.6449C11.879 11.0284 12.5108 10.9932 12.8493 10.5694L16.2832 6.27153C16.4067 6.11691 16.3943 5.89416 16.2543 5.75422Z" fill="#B40000"/>
<path fill-rule="evenodd" clip-rule="evenodd" d="M4 10C4 5.58172 7.58172 2 12 2C16.4183 2 20 5.58172 20 10C20 10.9321 19.8404 11.828 19.5466 12.6612C19.1047 13.9144 17.7023 14.2634 16.6147 13.911C15.3092 13.4879 13.4741 13 12 13C10.5259 13 8.6908 13.4879 7.3853 13.911C6.29768 14.2634 4.89534 13.9144 4.45343 12.6612C4.15962 11.828 4 10.9321 4 10ZM12 3C8.13401 3 5 6.13401 5 10C5 10.8173 5.13985 11.6008 5.39651 12.3286C5.59954 12.9044 6.31979 13.2051 7.07703 12.9597C8.39612 12.5322 10.3584 12 12 12C13.6416 12 15.6039 12.5322 16.923 12.9597C17.6802 13.2051 18.4005 12.9044 18.6035 12.3286C18.8601 11.6008 19 10.8173 19 10C19 6.13401 15.866 3 12 3Z" fill="#B40000"/>
</g>
<defs>
<filter id="filter0_d_1287_2006" x="0" y="0" width="24" height="24" filterUnits="userSpaceOnUse" color-interpolation-filters="sRGB">
<feFlood flood-opacity="0" result="BackgroundImageFix"/>
<feColorMatrix in="SourceAlpha" type="matrix" values="0 0 0 0 0 0 0 0 0 0 0 0 0 0 0 0 0 0 127 0" result="hardAlpha"/>
<feOffset dy="4"/>
<feGaussianBlur stdDeviation="2"/>
<feComposite in2="hardAlpha" operator="out"/>
<feColorMatrix type="matrix" values="0 0 0 0 0 0 0 0 0 0 0 0 0 0 0 0 0 0 0.25 0"/>
<feBlend mode="normal" in2="BackgroundImageFix" result="effect1_dropShadow_1287_2006"/>
<feBlend mode="normal" in="SourceGraphic" in2="effect1_dropShadow_1287_2006" result="shape"/>
</filter>
</defs>
</svg>
